<?xml version="1.0" encoding="UTF-8" standalone="no"?><!-- Generator: Gravit.io --><svg xmlns="http://www.w3.org/2000/svg" xmlns:xlink="http://www.w3.org/1999/xlink" style="isolation:isolate" viewBox="276.948 260.818 1260.227 321.455" width="1260.227pt" height="321.455pt"><clipPath id="_clipPath_4UZqsp1Jk0mQBPeyH9Rr8ikGfbhYtjIV"><rect x="276.948" y="260.818" width="1260.227" height="321.455" transform="matrix(1,0,0,1,0,0)" fill="rgb(255,255,255)"/></clipPath><g clip-path="url(#_clipPath_4UZqsp1Jk0mQBPeyH9Rr8ikGfbhYtjIV)"><path d=" M 700.609 381.836 L 700.609 381.836 L 700.609 381.836 Q 700.609 392.871 695.238 400.732 L 695.238 400.732 L 695.238 400.732 Q 689.867 408.594 679.369 412.646 L 679.369 412.646 L 679.369 412.646 Q 668.871 416.699 653.832 416.699 L 653.832 416.699 L 653.832 416.699 Q 639.477 416.699 629.223 412.305 L 629.223 412.305 L 629.223 412.305 Q 618.969 407.91 614.086 401.318 L 614.086 401.318 L 614.086 401.318 Q 609.203 394.727 609.203 388.086 L 609.203 388.086 L 609.203 388.086 Q 609.203 383.691 612.328 380.566 L 612.328 380.566 L 612.328 380.566 Q 615.453 377.441 620.238 377.441 L 620.238 377.441 L 620.238 377.441 Q 624.438 377.441 626.684 379.492 L 626.684 379.492 L 626.684 379.492 Q 628.93 381.543 630.98 385.254 L 630.98 385.254 L 630.98 385.254 Q 635.082 392.383 640.795 395.898 L 640.795 395.898 L 640.795 395.898 Q 646.508 399.414 656.371 399.414 L 656.371 399.414 L 656.371 399.414 Q 664.379 399.414 669.506 395.85 L 669.506 395.85 L 669.506 395.85 Q 674.633 392.285 674.633 387.695 L 674.633 387.695 L 674.633 387.695 Q 674.633 380.664 669.311 377.441 L 669.311 377.441 L 669.311 377.441 Q 663.988 374.219 651.781 371.289 L 651.781 371.289 L 651.781 371.289 Q 638.012 367.871 629.369 364.111 L 629.369 364.111 L 629.369 364.111 Q 620.727 360.352 615.551 354.199 L 615.551 354.199 L 615.551 354.199 Q 610.375 348.047 610.375 339.063 L 610.375 339.063 L 610.375 339.063 Q 610.375 331.055 615.16 323.926 L 615.16 323.926 L 615.16 323.926 Q 619.945 316.797 629.271 312.549 L 629.271 312.549 L 629.271 312.549 Q 638.598 308.301 651.781 308.301 L 651.781 308.301 L 651.781 308.301 Q 662.133 308.301 670.385 310.449 L 670.385 310.449 L 670.385 310.449 Q 678.637 312.598 684.154 316.211 L 684.154 316.211 L 684.154 316.211 Q 689.672 319.824 692.553 324.219 L 692.553 324.219 L 692.553 324.219 Q 695.434 328.613 695.434 332.813 L 695.434 332.813 L 695.434 332.813 Q 695.434 337.402 692.357 340.332 L 692.357 340.332 L 692.357 340.332 Q 689.281 343.262 683.617 343.262 L 683.617 343.262 L 683.617 343.262 Q 679.516 343.262 676.635 340.918 L 676.635 340.918 L 676.635 340.918 Q 673.754 338.574 670.043 333.887 L 670.043 333.887 L 670.043 333.887 Q 667.016 329.98 662.914 327.637 L 662.914 327.637 L 662.914 327.637 Q 658.813 325.293 651.781 325.293 L 651.781 325.293 L 651.781 325.293 Q 644.555 325.293 639.77 328.369 L 639.77 328.369 L 639.77 328.369 Q 634.984 331.445 634.984 336.035 L 634.984 336.035 L 634.984 336.035 Q 634.984 340.234 638.5 342.92 L 638.5 342.92 L 638.5 342.92 Q 642.016 345.605 647.973 347.363 L 647.973 347.363 L 647.973 347.363 Q 653.93 349.121 664.379 351.66 L 664.379 351.66 L 664.379 351.66 Q 676.781 354.688 684.643 358.887 L 684.643 358.887 L 684.643 358.887 Q 692.504 363.086 696.557 368.799 L 696.557 368.799 L 696.557 368.799 Q 700.609 374.512 700.609 381.836 Z  M 747.777 323.242 L 747.777 323.242 L 747.777 326.465 L 747.777 326.465 Q 755.297 317.188 763.402 312.842 L 763.402 312.842 L 763.402 312.842 Q 771.508 308.496 781.762 308.496 L 781.762 308.496 L 781.762 308.496 Q 794.066 308.496 804.418 314.844 L 804.418 314.844 L 804.418 314.844 Q 814.77 321.191 820.775 333.398 L 820.775 333.398 L 820.775 333.398 Q 826.781 345.605 826.781 362.305 L 826.781 362.305 L 826.781 362.305 Q 826.781 374.609 823.314 384.912 L 823.314 384.912 L 823.314 384.912 Q 819.848 395.215 813.793 402.197 L 813.793 402.197 L 813.793 402.197 Q 807.738 409.18 799.486 412.939 L 799.486 412.939 L 799.486 412.939 Q 791.234 416.699 781.762 416.699 L 781.762 416.699 L 781.762 416.699 Q 770.336 416.699 762.572 412.109 L 762.572 412.109 L 762.572 412.109 Q 754.809 407.52 747.777 398.633 L 747.777 398.633 L 747.777 438.672 L 747.777 438.672 Q 747.777 456.25 734.984 456.25 L 734.984 456.25 L 734.984 456.25 Q 727.465 456.25 725.023 451.709 L 725.023 451.709 L 725.023 451.709 Q 722.582 447.168 722.582 438.477 L 722.582 438.477 L 722.582 323.438 L 722.582 323.438 Q 722.582 315.82 725.902 312.061 L 725.902 312.061 L 725.902 312.061 Q 729.223 308.301 734.984 308.301 L 734.984 308.301 L 734.984 308.301 Q 740.648 308.301 744.213 312.158 L 744.213 312.158 L 744.213 312.158 Q 747.777 316.016 747.777 323.242 Z  M 800.023 362.012 L 800.023 362.012 L 800.023 362.012 Q 800.023 351.465 796.801 343.896 L 796.801 343.896 L 796.801 343.896 Q 793.578 336.328 787.865 332.275 L 787.865 332.275 L 787.865 332.275 Q 782.152 328.223 775.219 328.223 L 775.219 328.223 L 775.219 328.223 Q 764.184 328.223 756.615 336.914 L 756.615 336.914 L 756.615 336.914 Q 749.047 345.605 749.047 362.5 L 749.047 362.5 L 749.047 362.5 Q 749.047 378.418 756.566 387.256 L 756.566 387.256 L 756.566 387.256 Q 764.086 396.094 775.219 396.094 L 775.219 396.094 L 775.219 396.094 Q 781.859 396.094 787.523 392.236 L 787.523 392.236 L 787.523 392.236 Q 793.188 388.379 796.605 380.664 L 796.605 380.664 L 796.605 380.664 Q 800.023 372.949 800.023 362.012 Z  M 915.551 401.66 L 915.551 401.66 L 915.551 401.66 Q 905.883 409.18 896.85 412.939 L 896.85 412.939 L 896.85 412.939 Q 887.816 416.699 876.586 416.699 L 876.586 416.699 L 876.586 416.699 Q 866.332 416.699 858.568 412.646 L 858.568 412.646 L 858.568 412.646 Q 850.805 408.594 846.605 401.66 L 846.605 401.66 L 846.605 401.66 Q 842.406 394.727 842.406 386.621 L 842.406 386.621 L 842.406 386.621 Q 842.406 375.684 849.34 367.969 L 849.34 367.969 L 849.34 367.969 Q 856.273 360.254 868.383 357.617 L 868.383 357.617 L 868.383 357.617 Q 870.922 357.031 880.98 354.98 L 880.98 354.98 L 880.98 354.98 Q 891.039 352.93 898.217 351.221 L 898.217 351.221 L 898.217 351.221 Q 905.395 349.512 913.793 347.07 L 913.793 347.07 L 913.793 347.07 Q 913.305 336.523 909.545 331.592 L 909.545 331.592 L 909.545 331.592 Q 905.785 326.66 893.969 326.66 L 893.969 326.66 L 893.969 326.66 Q 883.813 326.66 878.686 329.492 L 878.686 329.492 L 878.686 329.492 Q 873.559 332.324 869.896 337.988 L 869.896 337.988 L 869.896 337.988 Q 866.234 343.652 864.721 345.459 L 864.721 345.459 L 864.721 345.459 Q 863.207 347.266 858.227 347.266 L 858.227 347.266 L 858.227 347.266 Q 853.734 347.266 850.463 344.385 L 850.463 344.385 L 850.463 344.385 Q 847.191 341.504 847.191 337.012 L 847.191 337.012 L 847.191 337.012 Q 847.191 329.98 852.172 323.34 L 852.172 323.34 L 852.172 323.34 Q 857.152 316.699 867.699 312.402 L 867.699 312.402 L 867.699 312.402 Q 878.246 308.105 893.969 308.105 L 893.969 308.105 L 893.969 308.105 Q 911.547 308.105 921.605 312.256 L 921.605 312.256 L 921.605 312.256 Q 931.664 316.406 935.814 325.391 L 935.814 325.391 L 935.814 325.391 Q 939.965 334.375 939.965 349.219 L 939.965 349.219 L 939.965 349.219 Q 939.965 358.594 939.916 365.137 L 939.916 365.137 L 939.916 365.137 Q 939.867 371.68 939.77 379.688 L 939.77 379.688 L 939.77 379.688 Q 939.77 387.207 942.26 395.361 L 942.26 395.361 L 942.26 395.361 Q 944.75 403.516 944.75 405.859 L 944.75 405.859 L 944.75 405.859 Q 944.75 409.961 940.893 413.33 L 940.893 413.33 L 940.893 413.33 Q 937.035 416.699 932.152 416.699 L 932.152 416.699 L 932.152 416.699 Q 928.051 416.699 924.047 412.842 L 924.047 412.842 L 924.047 412.842 Q 920.043 408.984 915.551 401.66 Z  M 913.793 366.895 L 913.793 363.086 L 913.793 363.086 Q 907.934 365.234 896.752 367.627 L 896.752 367.627 L 896.752 367.627 Q 885.57 370.02 881.273 371.143 L 881.273 371.143 L 881.273 371.143 Q 876.977 372.266 873.07 375.537 L 873.07 375.537 L 873.07 375.537 Q 869.164 378.809 869.164 384.668 L 869.164 384.668 L 869.164 384.668 Q 869.164 390.723 873.754 394.971 L 873.754 394.971 L 873.754 394.971 Q 878.344 399.219 885.766 399.219 L 885.766 399.219 L 885.766 399.219 Q 893.676 399.219 900.365 395.752 L 900.365 395.752 L 900.365 395.752 Q 907.055 392.285 910.18 386.816 L 910.18 386.816 L 910.18 386.816 Q 913.793 380.762 913.793 366.895 L 913.793 366.895 L 913.793 366.895 Z  M 1062.621 383.691 L 1062.621 383.691 L 1062.621 383.691 Q 1062.621 388.672 1059.643 394.336 L 1059.643 394.336 L 1059.643 394.336 Q 1056.664 400 1050.561 405.127 L 1050.561 405.127 L 1050.561 405.127 Q 1044.457 410.254 1035.18 413.379 L 1035.18 413.379 L 1035.18 413.379 Q 1025.902 416.504 1014.281 416.504 L 1014.281 416.504 L 1014.281 416.504 Q 989.574 416.504 975.707 402.1 L 975.707 402.1 L 975.707 402.1 Q 961.84 387.695 961.84 363.477 L 961.84 363.477 L 961.84 363.477 Q 961.84 347.07 968.188 334.473 L 968.188 334.473 L 968.188 334.473 Q 974.535 321.875 986.547 314.99 L 986.547 314.99 L 986.547 314.99 Q 998.559 308.105 1015.258 308.105 L 1015.258 308.105 L 1015.258 308.105 Q 1025.609 308.105 1034.252 311.133 L 1034.252 311.133 L 1034.252 311.133 Q 1042.895 314.16 1048.9 318.945 L 1048.9 318.945 L 1048.9 318.945 Q 1054.906 323.73 1058.08 329.15 L 1058.08 329.15 L 1058.08 329.15 Q 1061.254 334.57 1061.254 339.258 L 1061.254 339.258 L 1061.254 339.258 Q 1061.254 344.043 1057.689 347.363 L 1057.689 347.363 L 1057.689 347.363 Q 1054.125 350.684 1049.047 350.684 L 1049.047 350.684 L 1049.047 350.684 Q 1045.727 350.684 1043.529 348.975 L 1043.529 348.975 L 1043.529 348.975 Q 1041.332 347.266 1038.598 343.457 L 1038.598 343.457 L 1038.598 343.457 Q 1033.715 336.035 1028.393 332.324 L 1028.393 332.324 L 1028.393 332.324 Q 1023.07 328.613 1014.867 328.613 L 1014.867 328.613 L 1014.867 328.613 Q 1003.051 328.613 995.824 337.842 L 995.824 337.842 L 995.824 337.842 Q 988.598 347.07 988.598 363.086 L 988.598 363.086 L 988.598 363.086 Q 988.598 370.605 990.453 376.904 L 990.453 376.904 L 990.453 376.904 Q 992.309 383.203 995.824 387.646 L 995.824 387.646 L 995.824 387.646 Q 999.34 392.09 1004.32 394.385 L 1004.32 394.385 L 1004.32 394.385 Q 1009.301 396.68 1015.258 396.68 L 1015.258 396.68 L 1015.258 396.68 Q 1023.266 396.68 1028.979 392.969 L 1028.979 392.969 L 1028.979 392.969 Q 1034.691 389.258 1039.086 381.641 L 1039.086 381.641 L 1039.086 381.641 Q 1041.527 377.148 1044.359 374.609 L 1044.359 374.609 L 1044.359 374.609 Q 1047.191 372.07 1051.293 372.07 L 1051.293 372.07 L 1051.293 372.07 Q 1056.176 372.07 1059.398 375.781 L 1059.398 375.781 L 1059.398 375.781 Q 1062.621 379.492 1062.621 383.691 Z  M 1160.277 369.043 L 1160.277 369.043 L 1108.129 369.043 L 1108.129 369.043 Q 1108.227 378.125 1111.791 385.059 L 1111.791 385.059 L 1111.791 385.059 Q 1115.355 391.992 1121.264 395.508 L 1121.264 395.508 L 1121.264 395.508 Q 1127.172 399.023 1134.301 399.023 L 1134.301 399.023 L 1134.301 399.023 Q 1139.086 399.023 1143.041 397.9 L 1143.041 397.9 L 1143.041 397.9 Q 1146.996 396.777 1150.707 394.385 L 1150.707 394.385 L 1150.707 394.385 Q 1154.418 391.992 1157.543 389.258 L 1157.543 389.258 L 1157.543 389.258 Q 1160.668 386.523 1165.648 381.836 L 1165.648 381.836 L 1165.648 381.836 Q 1167.699 380.078 1171.508 380.078 L 1171.508 380.078 L 1171.508 380.078 Q 1175.609 380.078 1178.148 382.324 L 1178.148 382.324 L 1178.148 382.324 Q 1180.688 384.57 1180.688 388.672 L 1180.688 388.672 L 1180.688 388.672 Q 1180.688 392.285 1177.855 397.119 L 1177.855 397.119 L 1177.855 397.119 Q 1175.023 401.953 1169.311 406.396 L 1169.311 406.396 L 1169.311 406.396 Q 1163.598 410.84 1154.955 413.77 L 1154.955 413.77 L 1154.955 413.77 Q 1146.313 416.699 1135.082 416.699 L 1135.082 416.699 L 1135.082 416.699 Q 1109.398 416.699 1095.141 402.051 L 1095.141 402.051 L 1095.141 402.051 Q 1080.883 387.402 1080.883 362.305 L 1080.883 362.305 L 1080.883 362.305 Q 1080.883 350.488 1084.398 340.381 L 1084.398 340.381 L 1084.398 340.381 Q 1087.914 330.273 1094.652 323.047 L 1094.652 323.047 L 1094.652 323.047 Q 1101.391 315.82 1111.254 311.963 L 1111.254 311.963 L 1111.254 311.963 Q 1121.117 308.105 1133.129 308.105 L 1133.129 308.105 L 1133.129 308.105 Q 1148.754 308.105 1159.936 314.697 L 1159.936 314.697 L 1159.936 314.697 Q 1171.117 321.289 1176.684 331.738 L 1176.684 331.738 L 1176.684 331.738 Q 1182.25 342.188 1182.25 353.027 L 1182.25 353.027 L 1182.25 353.027 Q 1182.25 363.086 1176.488 366.064 L 1176.488 366.064 L 1176.488 366.064 Q 1170.727 369.043 1160.277 369.043 Z  M 1108.129 353.906 L 1108.129 353.906 L 1156.469 353.906 L 1156.469 353.906 Q 1155.492 340.234 1149.096 333.447 L 1149.096 333.447 L 1149.096 333.447 Q 1142.699 326.66 1132.25 326.66 L 1132.25 326.66 L 1132.25 326.66 Q 1122.289 326.66 1115.893 333.545 L 1115.893 333.545 L 1115.893 333.545 Q 1109.496 340.43 1108.129 353.906 Z  M 1230.785 284.863 L 1230.785 284.863 L 1230.785 324.414 L 1230.785 324.414 Q 1235.863 318.555 1240.697 315.137 L 1240.697 315.137 L 1240.697 315.137 Q 1245.531 311.719 1251.391 310.01 L 1251.391 310.01 L 1251.391 310.01 Q 1257.25 308.301 1263.988 308.301 L 1263.988 308.301 L 1263.988 308.301 Q 1274.145 308.301 1282.006 312.598 L 1282.006 312.598 L 1282.006 312.598 Q 1289.867 316.895 1294.359 325.098 L 1294.359 325.098 L 1294.359 325.098 Q 1297.191 329.883 1298.168 335.791 L 1298.168 335.791 L 1298.168 335.791 Q 1299.145 341.699 1299.145 349.414 L 1299.145 349.414 L 1299.145 400.488 L 1299.145 400.488 Q 1299.145 408.496 1295.482 412.598 L 1295.482 412.598 L 1295.482 412.598 Q 1291.82 416.699 1285.766 416.699 L 1285.766 416.699 L 1285.766 416.699 Q 1272.582 416.699 1272.582 400.488 L 1272.582 400.488 L 1272.582 355.469 L 1272.582 355.469 Q 1272.582 342.676 1268.773 335.791 L 1268.773 335.791 L 1268.773 335.791 Q 1264.965 328.906 1254.32 328.906 L 1254.32 328.906 L 1254.32 328.906 Q 1247.191 328.906 1241.479 332.959 L 1241.479 332.959 L 1241.479 332.959 Q 1235.766 337.012 1232.934 344.043 L 1232.934 344.043 L 1232.934 344.043 Q 1230.785 350 1230.785 365.234 L 1230.785 365.234 L 1230.785 400.488 L 1230.785 400.488 Q 1230.785 408.398 1227.221 412.549 L 1227.221 412.549 L 1227.221 412.549 Q 1223.656 416.699 1217.309 416.699 L 1217.309 416.699 L 1217.309 416.699 Q 1204.125 416.699 1204.125 400.488 L 1204.125 400.488 L 1204.125 284.863 L 1204.125 284.863 Q 1204.125 276.758 1207.592 272.705 L 1207.592 272.705 L 1207.592 272.705 Q 1211.059 268.652 1217.309 268.652 L 1217.309 268.652 L 1217.309 268.652 Q 1223.656 268.652 1227.221 272.754 L 1227.221 272.754 L 1227.221 272.754 Q 1230.785 276.855 1230.785 284.863 Z  M 1399.926 369.043 L 1399.926 369.043 L 1347.777 369.043 L 1347.777 369.043 Q 1347.875 378.125 1351.439 385.059 L 1351.439 385.059 L 1351.439 385.059 Q 1355.004 391.992 1360.912 395.508 L 1360.912 395.508 L 1360.912 395.508 Q 1366.82 399.023 1373.949 399.023 L 1373.949 399.023 L 1373.949 399.023 Q 1378.734 399.023 1382.689 397.9 L 1382.689 397.9 L 1382.689 397.9 Q 1386.645 396.777 1390.355 394.385 L 1390.355 394.385 L 1390.355 394.385 Q 1394.066 391.992 1397.191 389.258 L 1397.191 389.258 L 1397.191 389.258 Q 1400.316 386.523 1405.297 381.836 L 1405.297 381.836 L 1405.297 381.836 Q 1407.348 380.078 1411.156 380.078 L 1411.156 380.078 L 1411.156 380.078 Q 1415.258 380.078 1417.797 382.324 L 1417.797 382.324 L 1417.797 382.324 Q 1420.336 384.57 1420.336 388.672 L 1420.336 388.672 L 1420.336 388.672 Q 1420.336 392.285 1417.504 397.119 L 1417.504 397.119 L 1417.504 397.119 Q 1414.672 401.953 1408.959 406.396 L 1408.959 406.396 L 1408.959 406.396 Q 1403.246 410.84 1394.604 413.77 L 1394.604 413.77 L 1394.604 413.77 Q 1385.961 416.699 1374.73 416.699 L 1374.73 416.699 L 1374.73 416.699 Q 1349.047 416.699 1334.789 402.051 L 1334.789 402.051 L 1334.789 402.051 Q 1320.531 387.402 1320.531 362.305 L 1320.531 362.305 L 1320.531 362.305 Q 1320.531 350.488 1324.047 340.381 L 1324.047 340.381 L 1324.047 340.381 Q 1327.563 330.273 1334.301 323.047 L 1334.301 323.047 L 1334.301 323.047 Q 1341.039 315.82 1350.902 311.963 L 1350.902 311.963 L 1350.902 311.963 Q 1360.766 308.105 1372.777 308.105 L 1372.777 308.105 L 1372.777 308.105 Q 1388.402 308.105 1399.584 314.697 L 1399.584 314.697 L 1399.584 314.697 Q 1410.766 321.289 1416.332 331.738 L 1416.332 331.738 L 1416.332 331.738 Q 1421.898 342.188 1421.898 353.027 L 1421.898 353.027 L 1421.898 353.027 Q 1421.898 363.086 1416.137 366.064 L 1416.137 366.064 L 1416.137 366.064 Q 1410.375 369.043 1399.926 369.043 Z  M 1347.777 353.906 L 1347.777 353.906 L 1396.117 353.906 L 1396.117 353.906 Q 1395.141 340.234 1388.744 333.447 L 1388.744 333.447 L 1388.744 333.447 Q 1382.348 326.66 1371.898 326.66 L 1371.898 326.66 L 1371.898 326.66 Q 1361.938 326.66 1355.541 333.545 L 1355.541 333.545 L 1355.541 333.545 Q 1349.145 340.43 1347.777 353.906 Z  M 1463.793 420.02 L 1463.793 420.02 L 1466.234 414.063 L 1433.422 331.445 L 1433.422 331.445 Q 1430.395 324.316 1430.395 321.094 L 1430.395 321.094 L 1430.395 321.094 Q 1430.395 317.676 1432.152 314.746 L 1432.152 314.746 L 1432.152 314.746 Q 1433.91 311.816 1436.986 310.059 L 1436.986 310.059 L 1436.986 310.059 Q 1440.063 308.301 1443.383 308.301 L 1443.383 308.301 L 1443.383 308.301 Q 1449.145 308.301 1452.074 311.963 L 1452.074 311.963 L 1452.074 311.963 Q 1455.004 315.625 1457.25 322.461 L 1457.25 322.461 L 1479.809 388.086 L 1501.195 327.051 L 1501.195 327.051 Q 1503.734 319.629 1505.785 315.43 L 1505.785 315.43 L 1505.785 315.43 Q 1507.836 311.23 1510.131 309.766 L 1510.131 309.766 L 1510.131 309.766 Q 1512.426 308.301 1516.625 308.301 L 1516.625 308.301 L 1516.625 308.301 Q 1519.652 308.301 1522.436 309.912 L 1522.436 309.912 L 1522.436 309.912 Q 1525.219 311.523 1526.732 314.258 L 1526.732 314.258 L 1526.732 314.258 Q 1528.246 316.992 1528.246 320.02 L 1528.246 320.02 L 1528.246 320.02 Q 1527.855 321.875 1526.977 325.293 L 1526.977 325.293 L 1526.977 325.293 Q 1526.098 328.711 1524.828 332.227 L 1524.828 332.227 L 1490.063 423.242 L 1490.063 423.242 Q 1485.57 435.254 1481.273 442.09 L 1481.273 442.09 L 1481.273 442.09 Q 1476.977 448.926 1469.896 452.588 L 1469.896 452.588 L 1469.896 452.588 Q 1462.816 456.25 1450.805 456.25 L 1450.805 456.25 L 1450.805 456.25 Q 1439.086 456.25 1433.227 453.711 L 1433.227 453.711 L 1433.227 453.711 Q 1427.367 451.172 1427.367 444.434 L 1427.367 444.434 L 1427.367 444.434 Q 1427.367 439.844 1430.15 437.354 L 1430.15 437.354 L 1430.15 437.354 Q 1432.934 434.863 1438.402 434.863 L 1438.402 434.863 L 1438.402 434.863 Q 1440.551 434.863 1442.602 435.449 L 1442.602 435.449 L 1442.602 435.449 Q 1445.141 436.035 1446.996 436.035 L 1446.996 436.035 L 1446.996 436.035 Q 1451.586 436.035 1454.223 434.668 L 1454.223 434.668 L 1454.223 434.668 Q 1456.859 433.301 1458.959 429.932 L 1458.959 429.932 L 1458.959 429.932 Q 1461.059 426.563 1463.793 420.02 Z " fill="rgb(255,255,255)"/><path d=" M 1188.53 504.093 L 1188.53 504.093 L 1191.703 504.093 L 1191.703 500.089 L 1191.703 500.089 Q 1191.703 493.839 1193.29 490.153 L 1193.29 490.153 L 1193.29 490.153 Q 1194.877 486.466 1198.661 484.782 L 1198.661 484.782 L 1198.661 484.782 Q 1202.446 483.097 1209.037 483.097 L 1209.037 483.097 L 1209.037 483.097 Q 1220.707 483.097 1220.707 488.81 L 1220.707 488.81 L 1220.707 488.81 Q 1220.707 490.665 1219.487 491.984 L 1219.487 491.984 L 1219.487 491.984 Q 1218.266 493.302 1216.606 493.302 L 1216.606 493.302 L 1216.606 493.302 Q 1215.824 493.302 1213.92 493.009 L 1213.92 493.009 L 1213.92 493.009 Q 1212.016 492.716 1210.698 492.716 L 1210.698 492.716 L 1210.698 492.716 Q 1207.084 492.716 1206.059 494.84 L 1206.059 494.84 L 1206.059 494.84 Q 1205.033 496.964 1205.033 500.919 L 1205.033 500.919 L 1205.033 504.093 L 1208.305 504.093 L 1208.305 504.093 Q 1215.922 504.093 1215.922 508.683 L 1215.922 508.683 L 1215.922 508.683 Q 1215.922 511.954 1213.896 512.833 L 1213.896 512.833 L 1213.896 512.833 Q 1211.869 513.712 1208.305 513.712 L 1208.305 513.712 L 1205.033 513.712 L 1205.033 549.015 L 1205.033 549.015 Q 1205.033 552.97 1203.154 555.045 L 1203.154 555.045 L 1203.154 555.045 Q 1201.274 557.12 1198.295 557.12 L 1198.295 557.12 L 1198.295 557.12 Q 1195.463 557.12 1193.583 555.045 L 1193.583 555.045 L 1193.583 555.045 Q 1191.703 552.97 1191.703 549.015 L 1191.703 549.015 L 1191.703 513.712 L 1188.041 513.712 L 1188.041 513.712 Q 1185.063 513.712 1183.451 512.369 L 1183.451 512.369 L 1183.451 512.369 Q 1181.84 511.027 1181.84 508.878 L 1181.84 508.878 L 1181.84 508.878 Q 1181.84 504.093 1188.53 504.093 Z  M 1236.137 537.882 L 1236.137 537.882 L 1236.137 549.015 L 1236.137 549.015 Q 1236.137 553.068 1234.233 555.094 L 1234.233 555.094 L 1234.233 555.094 Q 1232.328 557.12 1229.399 557.12 L 1229.399 557.12 L 1229.399 557.12 Q 1226.518 557.12 1224.662 555.07 L 1224.662 555.07 L 1224.662 555.07 Q 1222.807 553.019 1222.807 549.015 L 1222.807 549.015 L 1222.807 511.906 L 1222.807 511.906 Q 1222.807 502.921 1229.301 502.921 L 1229.301 502.921 L 1229.301 502.921 Q 1232.621 502.921 1234.086 505.021 L 1234.086 505.021 L 1234.086 505.021 Q 1235.551 507.12 1235.698 511.222 L 1235.698 511.222 L 1235.698 511.222 Q 1238.09 507.12 1240.605 505.021 L 1240.605 505.021 L 1240.605 505.021 Q 1243.119 502.921 1247.319 502.921 L 1247.319 502.921 L 1247.319 502.921 Q 1251.518 502.921 1255.473 505.021 L 1255.473 505.021 L 1255.473 505.021 Q 1259.428 507.12 1259.428 510.587 L 1259.428 510.587 L 1259.428 510.587 Q 1259.428 513.029 1257.743 514.616 L 1257.743 514.616 L 1257.743 514.616 Q 1256.059 516.202 1254.106 516.202 L 1254.106 516.202 L 1254.106 516.202 Q 1253.373 516.202 1250.566 515.299 L 1250.566 515.299 L 1250.566 515.299 Q 1247.758 514.396 1245.61 514.396 L 1245.61 514.396 L 1245.61 514.396 Q 1242.68 514.396 1240.824 515.934 L 1240.824 515.934 L 1240.824 515.934 Q 1238.969 517.472 1237.944 520.499 L 1237.944 520.499 L 1237.944 520.499 Q 1236.918 523.527 1236.528 527.702 L 1236.528 527.702 L 1236.528 527.702 Q 1236.137 531.876 1236.137 537.882 Z  M 1280.033 510.49 L 1280.033 510.49 L 1280.033 549.015 L 1280.033 549.015 Q 1280.033 553.019 1278.129 555.07 L 1278.129 555.07 L 1278.129 555.07 Q 1276.225 557.12 1273.295 557.12 L 1273.295 557.12 L 1273.295 557.12 Q 1270.366 557.12 1268.534 555.021 L 1268.534 555.021 L 1268.534 555.021 Q 1266.703 552.921 1266.703 549.015 L 1266.703 549.015 L 1266.703 510.88 L 1266.703 510.88 Q 1266.703 506.925 1268.534 504.923 L 1268.534 504.923 L 1268.534 504.923 Q 1270.366 502.921 1273.295 502.921 L 1273.295 502.921 L 1273.295 502.921 Q 1276.225 502.921 1278.129 504.923 L 1278.129 504.923 L 1278.129 504.923 Q 1280.033 506.925 1280.033 510.49 Z  M 1273.442 496.72 L 1273.442 496.72 L 1273.442 496.72 Q 1270.658 496.72 1268.681 495.011 L 1268.681 495.011 L 1268.681 495.011 Q 1266.703 493.302 1266.703 490.177 L 1266.703 490.177 L 1266.703 490.177 Q 1266.703 487.345 1268.73 485.514 L 1268.73 485.514 L 1268.73 485.514 Q 1270.756 483.683 1273.442 483.683 L 1273.442 483.683 L 1273.442 483.683 Q 1276.03 483.683 1278.032 485.343 L 1278.032 485.343 L 1278.032 485.343 Q 1280.033 487.003 1280.033 490.177 L 1280.033 490.177 L 1280.033 490.177 Q 1280.033 493.253 1278.08 494.987 L 1278.08 494.987 L 1278.08 494.987 Q 1276.127 496.72 1273.442 496.72 Z  M 1331.01 533.292 L 1331.01 533.292 L 1304.936 533.292 L 1304.936 533.292 Q 1304.985 537.833 1306.767 541.3 L 1306.767 541.3 L 1306.767 541.3 Q 1308.549 544.767 1311.503 546.525 L 1311.503 546.525 L 1311.503 546.525 Q 1314.457 548.283 1318.022 548.283 L 1318.022 548.283 L 1318.022 548.283 Q 1320.414 548.283 1322.392 547.721 L 1322.392 547.721 L 1322.392 547.721 Q 1324.369 547.16 1326.225 545.963 L 1326.225 545.963 L 1326.225 545.963 Q 1328.08 544.767 1329.643 543.4 L 1329.643 543.4 L 1329.643 543.4 Q 1331.205 542.033 1333.696 539.689 L 1333.696 539.689 L 1333.696 539.689 Q 1334.721 538.81 1336.625 538.81 L 1336.625 538.81 L 1336.625 538.81 Q 1338.676 538.81 1339.946 539.933 L 1339.946 539.933 L 1339.946 539.933 Q 1341.215 541.056 1341.215 543.107 L 1341.215 543.107 L 1341.215 543.107 Q 1341.215 544.913 1339.799 547.33 L 1339.799 547.33 L 1339.799 547.33 Q 1338.383 549.747 1335.527 551.969 L 1335.527 551.969 L 1335.527 551.969 Q 1332.67 554.191 1328.349 555.656 L 1328.349 555.656 L 1328.349 555.656 Q 1324.028 557.12 1318.412 557.12 L 1318.412 557.12 L 1318.412 557.12 Q 1305.571 557.12 1298.442 549.796 L 1298.442 549.796 L 1298.442 549.796 Q 1291.313 542.472 1291.313 529.923 L 1291.313 529.923 L 1291.313 529.923 Q 1291.313 524.015 1293.071 518.961 L 1293.071 518.961 L 1293.071 518.961 Q 1294.828 513.908 1298.198 510.294 L 1298.198 510.294 L 1298.198 510.294 Q 1301.567 506.681 1306.498 504.752 L 1306.498 504.752 L 1306.498 504.752 Q 1311.43 502.824 1317.436 502.824 L 1317.436 502.824 L 1317.436 502.824 Q 1325.248 502.824 1330.839 506.119 L 1330.839 506.119 L 1330.839 506.119 Q 1336.43 509.415 1339.213 514.64 L 1339.213 514.64 L 1339.213 514.64 Q 1341.996 519.865 1341.996 525.285 L 1341.996 525.285 L 1341.996 525.285 Q 1341.996 530.314 1339.116 531.803 L 1339.116 531.803 L 1339.116 531.803 Q 1336.235 533.292 1331.01 533.292 Z  M 1304.936 525.724 L 1304.936 525.724 L 1329.106 525.724 L 1329.106 525.724 Q 1328.617 518.888 1325.419 515.494 L 1325.419 515.494 L 1325.419 515.494 Q 1322.221 512.101 1316.996 512.101 L 1316.996 512.101 L 1316.996 512.101 Q 1312.016 512.101 1308.818 515.543 L 1308.818 515.543 L 1308.818 515.543 Q 1305.619 518.986 1304.936 525.724 Z  M 1365.336 510.294 L 1365.336 510.294 L 1365.336 511.906 L 1365.336 511.906 Q 1368.852 507.267 1373.027 505.094 L 1373.027 505.094 L 1373.027 505.094 Q 1377.201 502.921 1382.621 502.921 L 1382.621 502.921 L 1382.621 502.921 Q 1387.895 502.921 1392.045 505.216 L 1392.045 505.216 L 1392.045 505.216 Q 1396.196 507.511 1398.246 511.71 L 1398.246 511.71 L 1398.246 511.71 Q 1399.565 514.152 1399.955 516.984 L 1399.955 516.984 L 1399.955 516.984 Q 1400.346 519.816 1400.346 524.21 L 1400.346 524.21 L 1400.346 549.015 L 1400.346 549.015 Q 1400.346 553.019 1398.515 555.07 L 1398.515 555.07 L 1398.515 555.07 Q 1396.684 557.12 1393.754 557.12 L 1393.754 557.12 L 1393.754 557.12 Q 1390.776 557.12 1388.92 555.021 L 1388.92 555.021 L 1388.92 555.021 Q 1387.065 552.921 1387.065 549.015 L 1387.065 549.015 L 1387.065 526.798 L 1387.065 526.798 Q 1387.065 520.206 1385.234 516.715 L 1385.234 516.715 L 1385.234 516.715 Q 1383.403 513.224 1377.934 513.224 L 1377.934 513.224 L 1377.934 513.224 Q 1374.369 513.224 1371.44 515.348 L 1371.44 515.348 L 1371.44 515.348 Q 1368.51 517.472 1367.143 521.183 L 1367.143 521.183 L 1367.143 521.183 Q 1366.166 524.161 1366.166 532.316 L 1366.166 532.316 L 1366.166 549.015 L 1366.166 549.015 Q 1366.166 553.068 1364.286 555.094 L 1364.286 555.094 L 1364.286 555.094 Q 1362.407 557.12 1359.428 557.12 L 1359.428 557.12 L 1359.428 557.12 Q 1356.547 557.12 1354.692 555.021 L 1354.692 555.021 L 1354.692 555.021 Q 1352.836 552.921 1352.836 549.015 L 1352.836 549.015 L 1352.836 510.49 L 1352.836 510.49 Q 1352.836 506.681 1354.496 504.801 L 1354.496 504.801 L 1354.496 504.801 Q 1356.157 502.921 1359.037 502.921 L 1359.037 502.921 L 1359.037 502.921 Q 1360.795 502.921 1362.211 503.751 L 1362.211 503.751 L 1362.211 503.751 Q 1363.627 504.581 1364.482 506.242 L 1364.482 506.242 L 1364.482 506.242 Q 1365.336 507.902 1365.336 510.294 Z  M 1450.151 549.503 L 1450.151 549.503 L 1450.151 548.185 L 1450.151 548.185 Q 1447.465 551.261 1444.853 553.19 L 1444.853 553.19 L 1444.853 553.19 Q 1442.241 555.119 1439.189 556.119 L 1439.189 556.119 L 1439.189 556.119 Q 1436.137 557.12 1432.524 557.12 L 1432.524 557.12 L 1432.524 557.12 Q 1427.739 557.12 1423.661 555.094 L 1423.661 555.094 L 1423.661 555.094 Q 1419.584 553.068 1416.606 549.308 L 1416.606 549.308 L 1416.606 549.308 Q 1413.627 545.548 1412.089 540.47 L 1412.089 540.47 L 1412.089 540.47 Q 1410.551 535.392 1410.551 529.484 L 1410.551 529.484 L 1410.551 529.484 Q 1410.551 516.984 1416.655 510.001 L 1416.655 510.001 L 1416.655 510.001 Q 1422.758 503.019 1432.719 503.019 L 1432.719 503.019 L 1432.719 503.019 Q 1438.481 503.019 1442.436 504.996 L 1442.436 504.996 L 1442.436 504.996 Q 1446.391 506.974 1450.151 511.076 L 1450.151 511.076 L 1450.151 491.398 L 1450.151 491.398 Q 1450.151 487.296 1451.786 485.197 L 1451.786 485.197 L 1451.786 485.197 Q 1453.422 483.097 1456.449 483.097 L 1456.449 483.097 L 1456.449 483.097 Q 1459.477 483.097 1461.113 485.026 L 1461.113 485.026 L 1461.113 485.026 Q 1462.748 486.954 1462.748 490.714 L 1462.748 490.714 L 1462.748 549.503 L 1462.748 549.503 Q 1462.748 553.312 1460.991 555.216 L 1460.991 555.216 L 1460.991 555.216 Q 1459.233 557.12 1456.449 557.12 L 1456.449 557.12 L 1456.449 557.12 Q 1453.715 557.12 1451.933 555.143 L 1451.933 555.143 L 1451.933 555.143 Q 1450.151 553.165 1450.151 549.503 Z  M 1423.93 529.923 L 1423.93 529.923 L 1423.93 529.923 Q 1423.93 535.343 1425.615 539.152 L 1425.615 539.152 L 1425.615 539.152 Q 1427.299 542.96 1430.229 544.889 L 1430.229 544.889 L 1430.229 544.889 Q 1433.158 546.818 1436.625 546.818 L 1436.625 546.818 L 1436.625 546.818 Q 1440.141 546.818 1443.046 544.987 L 1443.046 544.987 L 1443.046 544.987 Q 1445.951 543.156 1447.685 539.371 L 1447.685 539.371 L 1447.685 539.371 Q 1449.418 535.587 1449.418 529.923 L 1449.418 529.923 L 1449.418 529.923 Q 1449.418 524.601 1447.685 520.768 L 1447.685 520.768 L 1447.685 520.768 Q 1445.951 516.935 1442.997 514.909 L 1442.997 514.909 L 1442.997 514.909 Q 1440.043 512.882 1436.528 512.882 L 1436.528 512.882 L 1436.528 512.882 Q 1432.866 512.882 1429.985 514.957 L 1429.985 514.957 L 1429.985 514.957 Q 1427.104 517.033 1425.517 520.914 L 1425.517 520.914 L 1425.517 520.914 Q 1423.93 524.796 1423.93 529.923 Z  M 1519.047 539.689 L 1519.047 539.689 L 1519.047 539.689 Q 1519.047 545.206 1516.362 549.137 L 1516.362 549.137 L 1516.362 549.137 Q 1513.676 553.068 1508.427 555.094 L 1508.427 555.094 L 1508.427 555.094 Q 1503.178 557.12 1495.658 557.12 L 1495.658 557.12 L 1495.658 557.12 Q 1488.481 557.12 1483.354 554.923 L 1483.354 554.923 L 1483.354 554.923 Q 1478.227 552.726 1475.785 549.43 L 1475.785 549.43 L 1475.785 549.43 Q 1473.344 546.134 1473.344 542.814 L 1473.344 542.814 L 1473.344 542.814 Q 1473.344 540.617 1474.907 539.054 L 1474.907 539.054 L 1474.907 539.054 Q 1476.469 537.492 1478.862 537.492 L 1478.862 537.492 L 1478.862 537.492 Q 1480.961 537.492 1482.084 538.517 L 1482.084 538.517 L 1482.084 538.517 Q 1483.207 539.542 1484.233 541.398 L 1484.233 541.398 L 1484.233 541.398 Q 1486.283 544.962 1489.14 546.72 L 1489.14 546.72 L 1489.14 546.72 Q 1491.996 548.478 1496.928 548.478 L 1496.928 548.478 L 1496.928 548.478 Q 1500.932 548.478 1503.495 546.696 L 1503.495 546.696 L 1503.495 546.696 Q 1506.059 544.913 1506.059 542.619 L 1506.059 542.619 L 1506.059 542.619 Q 1506.059 539.103 1503.398 537.492 L 1503.398 537.492 L 1503.398 537.492 Q 1500.737 535.88 1494.633 534.415 L 1494.633 534.415 L 1494.633 534.415 Q 1487.748 532.706 1483.427 530.827 L 1483.427 530.827 L 1483.427 530.827 Q 1479.106 528.947 1476.518 525.87 L 1476.518 525.87 L 1476.518 525.87 Q 1473.93 522.794 1473.93 518.302 L 1473.93 518.302 L 1473.93 518.302 Q 1473.93 514.298 1476.323 510.734 L 1476.323 510.734 L 1476.323 510.734 Q 1478.715 507.169 1483.378 505.045 L 1483.378 505.045 L 1483.378 505.045 Q 1488.041 502.921 1494.633 502.921 L 1494.633 502.921 L 1494.633 502.921 Q 1499.809 502.921 1503.935 503.995 L 1503.935 503.995 L 1503.935 503.995 Q 1508.061 505.07 1510.82 506.876 L 1510.82 506.876 L 1510.82 506.876 Q 1513.578 508.683 1515.019 510.88 L 1515.019 510.88 L 1515.019 510.88 Q 1516.459 513.077 1516.459 515.177 L 1516.459 515.177 L 1516.459 515.177 Q 1516.459 517.472 1514.921 518.937 L 1514.921 518.937 L 1514.921 518.937 Q 1513.383 520.402 1510.551 520.402 L 1510.551 520.402 L 1510.551 520.402 Q 1508.5 520.402 1507.06 519.23 L 1507.06 519.23 L 1507.06 519.23 Q 1505.619 518.058 1503.764 515.714 L 1503.764 515.714 L 1503.764 515.714 Q 1502.25 513.761 1500.199 512.589 L 1500.199 512.589 L 1500.199 512.589 Q 1498.149 511.417 1494.633 511.417 L 1494.633 511.417 L 1494.633 511.417 Q 1491.02 511.417 1488.627 512.955 L 1488.627 512.955 L 1488.627 512.955 Q 1486.235 514.494 1486.235 516.788 L 1486.235 516.788 L 1486.235 516.788 Q 1486.235 518.888 1487.992 520.231 L 1487.992 520.231 L 1487.992 520.231 Q 1489.75 521.574 1492.729 522.452 L 1492.729 522.452 L 1492.729 522.452 Q 1495.707 523.331 1500.932 524.601 L 1500.932 524.601 L 1500.932 524.601 Q 1507.133 526.115 1511.064 528.214 L 1511.064 528.214 L 1511.064 528.214 Q 1514.994 530.314 1517.021 533.17 L 1517.021 533.17 L 1517.021 533.17 Q 1519.047 536.027 1519.047 539.689 Z  M 1027.348 504.093 L 1027.348 504.093 L 1030.522 504.093 L 1030.522 500.089 L 1030.522 500.089 Q 1030.522 493.839 1032.109 490.153 L 1032.109 490.153 L 1032.109 490.153 Q 1033.696 486.466 1037.48 484.782 L 1037.48 484.782 L 1037.48 484.782 Q 1041.264 483.097 1047.856 483.097 L 1047.856 483.097 L 1047.856 483.097 Q 1059.526 483.097 1059.526 488.81 L 1059.526 488.81 L 1059.526 488.81 Q 1059.526 490.665 1058.305 491.984 L 1058.305 491.984 L 1058.305 491.984 Q 1057.084 493.302 1055.424 493.302 L 1055.424 493.302 L 1055.424 493.302 Q 1054.643 493.302 1052.739 493.009 L 1052.739 493.009 L 1052.739 493.009 Q 1050.834 492.716 1049.516 492.716 L 1049.516 492.716 L 1049.516 492.716 Q 1045.903 492.716 1044.877 494.84 L 1044.877 494.84 L 1044.877 494.84 Q 1043.852 496.964 1043.852 500.919 L 1043.852 500.919 L 1043.852 504.093 L 1047.123 504.093 L 1047.123 504.093 Q 1054.741 504.093 1054.741 508.683 L 1054.741 508.683 L 1054.741 508.683 Q 1054.741 511.954 1052.714 512.833 L 1052.714 512.833 L 1052.714 512.833 Q 1050.688 513.712 1047.123 513.712 L 1047.123 513.712 L 1043.852 513.712 L 1043.852 549.015 L 1043.852 549.015 Q 1043.852 552.97 1041.972 555.045 L 1041.972 555.045 L 1041.972 555.045 Q 1040.092 557.12 1037.114 557.12 L 1037.114 557.12 L 1037.114 557.12 Q 1034.282 557.12 1032.402 555.045 L 1032.402 555.045 L 1032.402 555.045 Q 1030.522 552.97 1030.522 549.015 L 1030.522 549.015 L 1030.522 513.712 L 1026.86 513.712 L 1026.86 513.712 Q 1023.881 513.712 1022.27 512.369 L 1022.27 512.369 L 1022.27 512.369 Q 1020.658 511.027 1020.658 508.878 L 1020.658 508.878 L 1020.658 508.878 Q 1020.658 504.093 1027.348 504.093 Z  M 1110.307 530.021 L 1110.307 530.021 L 1110.307 530.021 Q 1110.307 535.978 1108.451 541.007 L 1108.451 541.007 L 1108.451 541.007 Q 1106.596 546.036 1103.08 549.65 L 1103.08 549.65 L 1103.08 549.65 Q 1099.565 553.263 1094.682 555.192 L 1094.682 555.192 L 1094.682 555.192 Q 1089.799 557.12 1083.696 557.12 L 1083.696 557.12 L 1083.696 557.12 Q 1077.641 557.12 1072.807 555.167 L 1072.807 555.167 L 1072.807 555.167 Q 1067.973 553.214 1064.433 549.577 L 1064.433 549.577 L 1064.433 549.577 Q 1060.893 545.939 1059.062 540.983 L 1059.062 540.983 L 1059.062 540.983 Q 1057.231 536.027 1057.231 530.021 L 1057.231 530.021 L 1057.231 530.021 Q 1057.231 523.966 1059.086 518.937 L 1059.086 518.937 L 1059.086 518.937 Q 1060.942 513.908 1064.408 510.343 L 1064.408 510.343 L 1064.408 510.343 Q 1067.875 506.779 1072.807 504.85 L 1072.807 504.85 L 1072.807 504.85 Q 1077.739 502.921 1083.696 502.921 L 1083.696 502.921 L 1083.696 502.921 Q 1089.75 502.921 1094.682 504.874 L 1094.682 504.874 L 1094.682 504.874 Q 1099.614 506.827 1103.129 510.441 L 1103.129 510.441 L 1103.129 510.441 Q 1106.645 514.054 1108.476 519.035 L 1108.476 519.035 L 1108.476 519.035 Q 1110.307 524.015 1110.307 530.021 Z  M 1096.928 530.021 L 1096.928 530.021 L 1096.928 530.021 Q 1096.928 521.867 1093.339 517.326 L 1093.339 517.326 L 1093.339 517.326 Q 1089.75 512.785 1083.696 512.785 L 1083.696 512.785 L 1083.696 512.785 Q 1079.789 512.785 1076.811 514.811 L 1076.811 514.811 L 1076.811 514.811 Q 1073.832 516.837 1072.221 520.792 L 1072.221 520.792 L 1072.221 520.792 Q 1070.61 524.747 1070.61 530.021 L 1070.61 530.021 L 1070.61 530.021 Q 1070.61 535.245 1072.197 539.152 L 1072.197 539.152 L 1072.197 539.152 Q 1073.783 543.058 1076.738 545.133 L 1076.738 545.133 L 1076.738 545.133 Q 1079.692 547.208 1083.696 547.208 L 1083.696 547.208 L 1083.696 547.208 Q 1089.75 547.208 1093.339 542.643 L 1093.339 542.643 L 1093.339 542.643 Q 1096.928 538.077 1096.928 530.021 Z  M 1134.037 537.882 L 1134.037 537.882 L 1134.037 549.015 L 1134.037 549.015 Q 1134.037 553.068 1132.133 555.094 L 1132.133 555.094 L 1132.133 555.094 Q 1130.229 557.12 1127.299 557.12 L 1127.299 557.12 L 1127.299 557.12 Q 1124.418 557.12 1122.563 555.07 L 1122.563 555.07 L 1122.563 555.07 Q 1120.707 553.019 1120.707 549.015 L 1120.707 549.015 L 1120.707 511.906 L 1120.707 511.906 Q 1120.707 502.921 1127.201 502.921 L 1127.201 502.921 L 1127.201 502.921 Q 1130.522 502.921 1131.987 505.021 L 1131.987 505.021 L 1131.987 505.021 Q 1133.451 507.12 1133.598 511.222 L 1133.598 511.222 L 1133.598 511.222 Q 1135.991 507.12 1138.505 505.021 L 1138.505 505.021 L 1138.505 505.021 Q 1141.02 502.921 1145.219 502.921 L 1145.219 502.921 L 1145.219 502.921 Q 1149.418 502.921 1153.373 505.021 L 1153.373 505.021 L 1153.373 505.021 Q 1157.328 507.12 1157.328 510.587 L 1157.328 510.587 L 1157.328 510.587 Q 1157.328 513.029 1155.644 514.616 L 1155.644 514.616 L 1155.644 514.616 Q 1153.959 516.202 1152.006 516.202 L 1152.006 516.202 L 1152.006 516.202 Q 1151.274 516.202 1148.466 515.299 L 1148.466 515.299 L 1148.466 515.299 Q 1145.658 514.396 1143.51 514.396 L 1143.51 514.396 L 1143.51 514.396 Q 1140.58 514.396 1138.725 515.934 L 1138.725 515.934 L 1138.725 515.934 Q 1136.869 517.472 1135.844 520.499 L 1135.844 520.499 L 1135.844 520.499 Q 1134.819 523.527 1134.428 527.702 L 1134.428 527.702 L 1134.428 527.702 Q 1134.037 531.876 1134.037 537.882 Z  M 751.371 539.689 L 751.371 539.689 L 751.371 539.689 Q 751.371 545.206 748.686 549.137 L 748.686 549.137 L 748.686 549.137 Q 746 553.068 740.751 555.094 L 740.751 555.094 L 740.751 555.094 Q 735.502 557.12 727.983 557.12 L 727.983 557.12 L 727.983 557.12 Q 720.805 557.12 715.678 554.923 L 715.678 554.923 L 715.678 554.923 Q 710.551 552.726 708.11 549.43 L 708.11 549.43 L 708.11 549.43 Q 705.668 546.134 705.668 542.814 L 705.668 542.814 L 705.668 542.814 Q 705.668 540.617 707.231 539.054 L 707.231 539.054 L 707.231 539.054 Q 708.793 537.492 711.186 537.492 L 711.186 537.492 L 711.186 537.492 Q 713.285 537.492 714.408 538.517 L 714.408 538.517 L 714.408 538.517 Q 715.532 539.542 716.557 541.398 L 716.557 541.398 L 716.557 541.398 Q 718.608 544.962 721.464 546.72 L 721.464 546.72 L 721.464 546.72 Q 724.321 548.478 729.252 548.478 L 729.252 548.478 L 729.252 548.478 Q 733.256 548.478 735.82 546.696 L 735.82 546.696 L 735.82 546.696 Q 738.383 544.913 738.383 542.619 L 738.383 542.619 L 738.383 542.619 Q 738.383 539.103 735.722 537.492 L 735.722 537.492 L 735.722 537.492 Q 733.061 535.88 726.957 534.415 L 726.957 534.415 L 726.957 534.415 Q 720.073 532.706 715.751 530.827 L 715.751 530.827 L 715.751 530.827 Q 711.43 528.947 708.842 525.87 L 708.842 525.87 L 708.842 525.87 Q 706.254 522.794 706.254 518.302 L 706.254 518.302 L 706.254 518.302 Q 706.254 514.298 708.647 510.734 L 708.647 510.734 L 708.647 510.734 Q 711.039 507.169 715.702 505.045 L 715.702 505.045 L 715.702 505.045 Q 720.366 502.921 726.957 502.921 L 726.957 502.921 L 726.957 502.921 Q 732.133 502.921 736.259 503.995 L 736.259 503.995 L 736.259 503.995 Q 740.385 505.07 743.144 506.876 L 743.144 506.876 L 743.144 506.876 Q 745.903 508.683 747.343 510.88 L 747.343 510.88 L 747.343 510.88 Q 748.783 513.077 748.783 515.177 L 748.783 515.177 L 748.783 515.177 Q 748.783 517.472 747.245 518.937 L 747.245 518.937 L 747.245 518.937 Q 745.707 520.402 742.875 520.402 L 742.875 520.402 L 742.875 520.402 Q 740.824 520.402 739.384 519.23 L 739.384 519.23 L 739.384 519.23 Q 737.944 518.058 736.088 515.714 L 736.088 515.714 L 736.088 515.714 Q 734.574 513.761 732.524 512.589 L 732.524 512.589 L 732.524 512.589 Q 730.473 511.417 726.957 511.417 L 726.957 511.417 L 726.957 511.417 Q 723.344 511.417 720.951 512.955 L 720.951 512.955 L 720.951 512.955 Q 718.559 514.494 718.559 516.788 L 718.559 516.788 L 718.559 516.788 Q 718.559 518.888 720.317 520.231 L 720.317 520.231 L 720.317 520.231 Q 722.074 521.574 725.053 522.452 L 725.053 522.452 L 725.053 522.452 Q 728.032 523.331 733.256 524.601 L 733.256 524.601 L 733.256 524.601 Q 739.457 526.115 743.388 528.214 L 743.388 528.214 L 743.388 528.214 Q 747.319 530.314 749.345 533.17 L 749.345 533.17 L 749.345 533.17 Q 751.371 536.027 751.371 539.689 Z  M 774.955 510.392 L 774.955 510.392 L 774.955 512.003 L 774.955 512.003 Q 778.715 507.365 782.768 505.192 L 782.768 505.192 L 782.768 505.192 Q 786.821 503.019 791.948 503.019 L 791.948 503.019 L 791.948 503.019 Q 798.1 503.019 803.276 506.193 L 803.276 506.193 L 803.276 506.193 Q 808.451 509.367 811.454 515.47 L 811.454 515.47 L 811.454 515.47 Q 814.457 521.574 814.457 529.923 L 814.457 529.923 L 814.457 529.923 Q 814.457 536.076 812.724 541.227 L 812.724 541.227 L 812.724 541.227 Q 810.991 546.378 807.963 549.869 L 807.963 549.869 L 807.963 549.869 Q 804.936 553.361 800.81 555.241 L 800.81 555.241 L 800.81 555.241 Q 796.684 557.12 791.948 557.12 L 791.948 557.12 L 791.948 557.12 Q 786.235 557.12 782.353 554.826 L 782.353 554.826 L 782.353 554.826 Q 778.471 552.531 774.955 548.087 L 774.955 548.087 L 774.955 568.107 L 774.955 568.107 Q 774.955 576.896 768.559 576.896 L 768.559 576.896 L 768.559 576.896 Q 764.799 576.896 763.578 574.625 L 763.578 574.625 L 763.578 574.625 Q 762.358 572.355 762.358 568.009 L 762.358 568.009 L 762.358 510.49 L 762.358 510.49 Q 762.358 506.681 764.018 504.801 L 764.018 504.801 L 764.018 504.801 Q 765.678 502.921 768.559 502.921 L 768.559 502.921 L 768.559 502.921 Q 771.391 502.921 773.173 504.85 L 773.173 504.85 L 773.173 504.85 Q 774.955 506.779 774.955 510.392 Z  M 801.078 529.777 L 801.078 529.777 L 801.078 529.777 Q 801.078 524.503 799.467 520.719 L 799.467 520.719 L 799.467 520.719 Q 797.856 516.935 794.999 514.909 L 794.999 514.909 L 794.999 514.909 Q 792.143 512.882 788.676 512.882 L 788.676 512.882 L 788.676 512.882 Q 783.158 512.882 779.374 517.228 L 779.374 517.228 L 779.374 517.228 Q 775.59 521.574 775.59 530.021 L 775.59 530.021 L 775.59 530.021 Q 775.59 537.98 779.35 542.399 L 779.35 542.399 L 779.35 542.399 Q 783.11 546.818 788.676 546.818 L 788.676 546.818 L 788.676 546.818 Q 791.996 546.818 794.828 544.889 L 794.828 544.889 L 794.828 544.889 Q 797.66 542.96 799.369 539.103 L 799.369 539.103 L 799.369 539.103 Q 801.078 535.245 801.078 529.777 Z  M 858.842 549.601 L 858.842 549.601 L 858.842 549.601 Q 854.008 553.361 849.491 555.241 L 849.491 555.241 L 849.491 555.241 Q 844.975 557.12 839.36 557.12 L 839.36 557.12 L 839.36 557.12 Q 834.233 557.12 830.351 555.094 L 830.351 555.094 L 830.351 555.094 Q 826.469 553.068 824.369 549.601 L 824.369 549.601 L 824.369 549.601 Q 822.27 546.134 822.27 542.081 L 822.27 542.081 L 822.27 542.081 Q 822.27 536.613 825.737 532.755 L 825.737 532.755 L 825.737 532.755 Q 829.203 528.898 835.258 527.579 L 835.258 527.579 L 835.258 527.579 Q 836.528 527.286 841.557 526.261 L 841.557 526.261 L 841.557 526.261 Q 846.586 525.236 850.175 524.381 L 850.175 524.381 L 850.175 524.381 Q 853.764 523.527 857.963 522.306 L 857.963 522.306 L 857.963 522.306 Q 857.719 517.033 855.839 514.567 L 855.839 514.567 L 855.839 514.567 Q 853.959 512.101 848.051 512.101 L 848.051 512.101 L 848.051 512.101 Q 842.973 512.101 840.409 513.517 L 840.409 513.517 L 840.409 513.517 Q 837.846 514.933 836.015 517.765 L 836.015 517.765 L 836.015 517.765 Q 834.184 520.597 833.427 521.5 L 833.427 521.5 L 833.427 521.5 Q 832.67 522.404 830.18 522.404 L 830.18 522.404 L 830.18 522.404 Q 827.934 522.404 826.298 520.963 L 826.298 520.963 L 826.298 520.963 Q 824.662 519.523 824.662 517.277 L 824.662 517.277 L 824.662 517.277 Q 824.662 513.761 827.153 510.441 L 827.153 510.441 L 827.153 510.441 Q 829.643 507.12 834.916 504.972 L 834.916 504.972 L 834.916 504.972 Q 840.19 502.824 848.051 502.824 L 848.051 502.824 L 848.051 502.824 Q 856.84 502.824 861.869 504.899 L 861.869 504.899 L 861.869 504.899 Q 866.899 506.974 868.974 511.466 L 868.974 511.466 L 868.974 511.466 Q 871.049 515.958 871.049 523.38 L 871.049 523.38 L 871.049 523.38 Q 871.049 528.068 871.025 531.339 L 871.025 531.339 L 871.025 531.339 Q 871 534.611 870.951 538.615 L 870.951 538.615 L 870.951 538.615 Q 870.951 542.374 872.197 546.452 L 872.197 546.452 L 872.197 546.452 Q 873.442 550.529 873.442 551.701 L 873.442 551.701 L 873.442 551.701 Q 873.442 553.751 871.513 555.436 L 871.513 555.436 L 871.513 555.436 Q 869.584 557.12 867.143 557.12 L 867.143 557.12 L 867.143 557.12 Q 865.092 557.12 863.09 555.192 L 863.09 555.192 L 863.09 555.192 Q 861.088 553.263 858.842 549.601 Z  M 857.963 532.218 L 857.963 530.314 L 857.963 530.314 Q 855.033 531.388 849.443 532.584 L 849.443 532.584 L 849.443 532.584 Q 843.852 533.781 841.703 534.342 L 841.703 534.342 L 841.703 534.342 Q 839.555 534.904 837.602 536.539 L 837.602 536.539 L 837.602 536.539 Q 835.649 538.175 835.649 541.105 L 835.649 541.105 L 835.649 541.105 Q 835.649 544.132 837.944 546.256 L 837.944 546.256 L 837.944 546.256 Q 840.239 548.38 843.949 548.38 L 843.949 548.38 L 843.949 548.38 Q 847.905 548.38 851.249 546.647 L 851.249 546.647 L 851.249 546.647 Q 854.594 544.913 856.157 542.179 L 856.157 542.179 L 856.157 542.179 Q 857.963 539.152 857.963 532.218 L 857.963 532.218 L 857.963 532.218 Z  M 932.377 540.617 L 932.377 540.617 L 932.377 540.617 Q 932.377 543.107 930.888 545.939 L 930.888 545.939 L 930.888 545.939 Q 929.399 548.771 926.347 551.334 L 926.347 551.334 L 926.347 551.334 Q 923.295 553.898 918.657 555.46 L 918.657 555.46 L 918.657 555.46 Q 914.018 557.023 908.207 557.023 L 908.207 557.023 L 908.207 557.023 Q 895.854 557.023 888.92 549.821 L 888.92 549.821 L 888.92 549.821 Q 881.987 542.619 881.987 530.509 L 881.987 530.509 L 881.987 530.509 Q 881.987 522.306 885.16 516.007 L 885.16 516.007 L 885.16 516.007 Q 888.334 509.708 894.34 506.266 L 894.34 506.266 L 894.34 506.266 Q 900.346 502.824 908.696 502.824 L 908.696 502.824 L 908.696 502.824 Q 913.871 502.824 918.193 504.337 L 918.193 504.337 L 918.193 504.337 Q 922.514 505.851 925.517 508.244 L 925.517 508.244 L 925.517 508.244 Q 928.52 510.636 930.107 513.346 L 930.107 513.346 L 930.107 513.346 Q 931.694 516.056 931.694 518.4 L 931.694 518.4 L 931.694 518.4 Q 931.694 520.792 929.911 522.452 L 929.911 522.452 L 929.911 522.452 Q 928.129 524.113 925.59 524.113 L 925.59 524.113 L 925.59 524.113 Q 923.93 524.113 922.831 523.258 L 922.831 523.258 L 922.831 523.258 Q 921.733 522.404 920.366 520.499 L 920.366 520.499 L 920.366 520.499 Q 917.924 516.788 915.263 514.933 L 915.263 514.933 L 915.263 514.933 Q 912.602 513.077 908.5 513.077 L 908.5 513.077 L 908.5 513.077 Q 902.592 513.077 898.979 517.692 L 898.979 517.692 L 898.979 517.692 Q 895.366 522.306 895.366 530.314 L 895.366 530.314 L 895.366 530.314 Q 895.366 534.074 896.293 537.223 L 896.293 537.223 L 896.293 537.223 Q 897.221 540.372 898.979 542.594 L 898.979 542.594 L 898.979 542.594 Q 900.737 544.816 903.227 545.963 L 903.227 545.963 L 903.227 545.963 Q 905.717 547.111 908.696 547.111 L 908.696 547.111 L 908.696 547.111 Q 912.699 547.111 915.556 545.255 L 915.556 545.255 L 915.556 545.255 Q 918.412 543.4 920.61 539.591 L 920.61 539.591 L 920.61 539.591 Q 921.83 537.345 923.246 536.076 L 923.246 536.076 L 923.246 536.076 Q 924.662 534.806 926.713 534.806 L 926.713 534.806 L 926.713 534.806 Q 929.155 534.806 930.766 536.661 L 930.766 536.661 L 930.766 536.661 Q 932.377 538.517 932.377 540.617 Z  M 981.205 533.292 L 981.205 533.292 L 955.131 533.292 L 955.131 533.292 Q 955.18 537.833 956.962 541.3 L 956.962 541.3 L 956.962 541.3 Q 958.744 544.767 961.699 546.525 L 961.699 546.525 L 961.699 546.525 Q 964.653 548.283 968.217 548.283 L 968.217 548.283 L 968.217 548.283 Q 970.61 548.283 972.587 547.721 L 972.587 547.721 L 972.587 547.721 Q 974.565 547.16 976.42 545.963 L 976.42 545.963 L 976.42 545.963 Q 978.276 544.767 979.838 543.4 L 979.838 543.4 L 979.838 543.4 Q 981.401 542.033 983.891 539.689 L 983.891 539.689 L 983.891 539.689 Q 984.916 538.81 986.821 538.81 L 986.821 538.81 L 986.821 538.81 Q 988.871 538.81 990.141 539.933 L 990.141 539.933 L 990.141 539.933 Q 991.41 541.056 991.41 543.107 L 991.41 543.107 L 991.41 543.107 Q 991.41 544.913 989.994 547.33 L 989.994 547.33 L 989.994 547.33 Q 988.578 549.747 985.722 551.969 L 985.722 551.969 L 985.722 551.969 Q 982.866 554.191 978.544 555.656 L 978.544 555.656 L 978.544 555.656 Q 974.223 557.12 968.608 557.12 L 968.608 557.12 L 968.608 557.12 Q 955.766 557.12 948.637 549.796 L 948.637 549.796 L 948.637 549.796 Q 941.508 542.472 941.508 529.923 L 941.508 529.923 L 941.508 529.923 Q 941.508 524.015 943.266 518.961 L 943.266 518.961 L 943.266 518.961 Q 945.024 513.908 948.393 510.294 L 948.393 510.294 L 948.393 510.294 Q 951.762 506.681 956.694 504.752 L 956.694 504.752 L 956.694 504.752 Q 961.625 502.824 967.631 502.824 L 967.631 502.824 L 967.631 502.824 Q 975.444 502.824 981.034 506.119 L 981.034 506.119 L 981.034 506.119 Q 986.625 509.415 989.408 514.64 L 989.408 514.64 L 989.408 514.64 Q 992.192 519.865 992.192 525.285 L 992.192 525.285 L 992.192 525.285 Q 992.192 530.314 989.311 531.803 L 989.311 531.803 L 989.311 531.803 Q 986.43 533.292 981.205 533.292 Z  M 955.131 525.724 L 955.131 525.724 L 979.301 525.724 L 979.301 525.724 Q 978.813 518.888 975.615 515.494 L 975.615 515.494 L 975.615 515.494 Q 972.416 512.101 967.192 512.101 L 967.192 512.101 L 967.192 512.101 Q 962.211 512.101 959.013 515.543 L 959.013 515.543 L 959.013 515.543 Q 955.815 518.986 955.131 525.724 Z  M 657.719 549.601 L 657.719 549.601 L 657.719 549.601 Q 652.885 553.361 648.368 555.241 L 648.368 555.241 L 648.368 555.241 Q 643.852 557.12 638.237 557.12 L 638.237 557.12 L 638.237 557.12 Q 633.11 557.12 629.228 555.094 L 629.228 555.094 L 629.228 555.094 Q 625.346 553.068 623.246 549.601 L 623.246 549.601 L 623.246 549.601 Q 621.147 546.134 621.147 542.081 L 621.147 542.081 L 621.147 542.081 Q 621.147 536.613 624.614 532.755 L 624.614 532.755 L 624.614 532.755 Q 628.08 528.898 634.135 527.579 L 634.135 527.579 L 634.135 527.579 Q 635.405 527.286 640.434 526.261 L 640.434 526.261 L 640.434 526.261 Q 645.463 525.236 649.052 524.381 L 649.052 524.381 L 649.052 524.381 Q 652.641 523.527 656.84 522.306 L 656.84 522.306 L 656.84 522.306 Q 656.596 517.033 654.716 514.567 L 654.716 514.567 L 654.716 514.567 Q 652.836 512.101 646.928 512.101 L 646.928 512.101 L 646.928 512.101 Q 641.85 512.101 639.286 513.517 L 639.286 513.517 L 639.286 513.517 Q 636.723 514.933 634.892 517.765 L 634.892 517.765 L 634.892 517.765 Q 633.061 520.597 632.304 521.5 L 632.304 521.5 L 632.304 521.5 Q 631.547 522.404 629.057 522.404 L 629.057 522.404 L 629.057 522.404 Q 626.811 522.404 625.175 520.963 L 625.175 520.963 L 625.175 520.963 Q 623.539 519.523 623.539 517.277 L 623.539 517.277 L 623.539 517.277 Q 623.539 513.761 626.03 510.441 L 626.03 510.441 L 626.03 510.441 Q 628.52 507.12 633.793 504.972 L 633.793 504.972 L 633.793 504.972 Q 639.067 502.824 646.928 502.824 L 646.928 502.824 L 646.928 502.824 Q 655.717 502.824 660.746 504.899 L 660.746 504.899 L 660.746 504.899 Q 665.776 506.974 667.851 511.466 L 667.851 511.466 L 667.851 511.466 Q 669.926 515.958 669.926 523.38 L 669.926 523.38 L 669.926 523.38 Q 669.926 528.068 669.902 531.339 L 669.902 531.339 L 669.902 531.339 Q 669.877 534.611 669.828 538.615 L 669.828 538.615 L 669.828 538.615 Q 669.828 542.374 671.074 546.452 L 671.074 546.452 L 671.074 546.452 Q 672.319 550.529 672.319 551.701 L 672.319 551.701 L 672.319 551.701 Q 672.319 553.751 670.39 555.436 L 670.39 555.436 L 670.39 555.436 Q 668.461 557.12 666.02 557.12 L 666.02 557.12 L 666.02 557.12 Q 663.969 557.12 661.967 555.192 L 661.967 555.192 L 661.967 555.192 Q 659.965 553.263 657.719 549.601 Z  M 656.84 532.218 L 656.84 530.314 L 656.84 530.314 Q 653.91 531.388 648.32 532.584 L 648.32 532.584 L 648.32 532.584 Q 642.729 533.781 640.58 534.342 L 640.58 534.342 L 640.58 534.342 Q 638.432 534.904 636.479 536.539 L 636.479 536.539 L 636.479 536.539 Q 634.526 538.175 634.526 541.105 L 634.526 541.105 L 634.526 541.105 Q 634.526 544.132 636.821 546.256 L 636.821 546.256 L 636.821 546.256 Q 639.116 548.38 642.826 548.38 L 642.826 548.38 L 642.826 548.38 Q 646.782 548.38 650.126 546.647 L 650.126 546.647 L 650.126 546.647 Q 653.471 544.913 655.033 542.179 L 655.033 542.179 L 655.033 542.179 Q 656.84 539.152 656.84 532.218 L 656.84 532.218 L 656.84 532.218 Z " fill="rgb(255,255,255)"/><rect x="446" y="457" width="124" height="106.636" transform="matrix(1,0,0,1,0,0)" fill="rgb(255,255,255)"/><circle vector-effect="non-scaling-stroke" cx="508.0000000000001" cy="458.9999999999998" r="62" fill="rgb(255,255,255)"/><circle vector-effect="non-scaling-stroke" cx="508" cy="342" r="45.00000000000003" fill="rgb(255,255,255)"/><path d=" M 352.17 356.571 L 437.857 356.571 L 437.857 414.259 C 437.857 450.306 408.591 479.571 372.544 479.571 L 352.17 479.571 C 316.123 479.571 286.857 452.014 286.857 418.071 L 286.857 418.071 C 286.857 384.129 316.123 356.571 352.17 356.571 Z  M 324.81 394.314 L 324.81 394.314 L 324.81 406.179 L 324.81 406.179 Q 326.334 404.421 327.784 403.396 L 327.784 403.396 L 327.784 403.396 Q 329.234 402.37 330.992 401.858 L 330.992 401.858 L 330.992 401.858 Q 332.75 401.345 334.771 401.345 L 334.771 401.345 L 334.771 401.345 Q 337.818 401.345 340.176 402.634 L 340.176 402.634 L 340.176 402.634 Q 342.535 403.923 343.883 406.384 L 343.883 406.384 L 343.883 406.384 Q 344.732 407.819 345.025 409.592 L 345.025 409.592 L 345.025 409.592 Q 345.318 411.364 345.318 413.679 L 345.318 413.679 L 345.318 429.001 L 345.318 429.001 Q 345.318 431.403 344.219 432.634 L 344.219 432.634 L 344.219 432.634 Q 343.121 433.864 341.304 433.864 L 341.304 433.864 L 341.304 433.864 Q 337.349 433.864 337.349 429.001 L 337.349 429.001 L 337.349 415.495 L 337.349 415.495 Q 337.349 411.657 336.207 409.592 L 336.207 409.592 L 336.207 409.592 Q 335.064 407.527 331.871 407.527 L 331.871 407.527 L 331.871 407.527 Q 329.732 407.527 328.018 408.742 L 328.018 408.742 L 328.018 408.742 Q 326.304 409.958 325.455 412.068 L 325.455 412.068 L 325.455 412.068 Q 324.81 413.855 324.81 418.425 L 324.81 418.425 L 324.81 429.001 L 324.81 429.001 Q 324.81 431.374 323.741 432.619 L 323.741 432.619 L 323.741 432.619 Q 322.672 433.864 320.767 433.864 L 320.767 433.864 L 320.767 433.864 Q 316.812 433.864 316.812 429.001 L 316.812 429.001 L 316.812 394.314 L 316.812 394.314 Q 316.812 391.882 317.852 390.666 L 317.852 390.666 L 317.852 390.666 Q 318.892 389.45 320.767 389.45 L 320.767 389.45 L 320.767 389.45 Q 322.672 389.45 323.741 390.681 L 323.741 390.681 L 323.741 390.681 Q 324.81 391.911 324.81 394.314 L 324.81 394.314 Z  M 359.908 415.027 L 359.908 415.027 L 374.41 415.027 L 374.41 415.027 Q 374.117 410.925 372.198 408.889 L 372.198 408.889 L 372.198 408.889 Q 370.279 406.853 367.144 406.853 L 367.144 406.853 L 367.144 406.853 Q 364.156 406.853 362.237 408.918 L 362.237 408.918 L 362.237 408.918 Q 360.318 410.984 359.908 415.027 L 359.908 415.027 Z  M 394.713 434.86 L 394.713 434.86 L 395.445 433.073 L 385.601 408.288 L 385.601 408.288 Q 384.693 406.15 384.693 405.183 L 384.693 405.183 L 384.693 405.183 Q 384.693 404.157 385.22 403.278 L 385.22 403.278 L 385.22 403.278 Q 385.748 402.4 386.671 401.872 L 386.671 401.872 L 386.671 401.872 Q 387.593 401.345 388.59 401.345 L 388.59 401.345 L 388.59 401.345 Q 390.318 401.345 391.197 402.443 L 391.197 402.443 L 391.197 402.443 Q 392.076 403.542 392.75 405.593 L 392.75 405.593 L 399.517 425.28 L 405.933 406.97 L 405.933 406.97 Q 406.695 404.743 407.31 403.484 L 407.31 403.484 L 407.31 403.484 Q 407.926 402.224 408.614 401.784 L 408.614 401.784 L 408.614 401.784 Q 409.302 401.345 410.562 401.345 L 410.562 401.345 L 410.562 401.345 Q 411.47 401.345 412.305 401.828 L 412.305 401.828 L 412.305 401.828 Q 413.14 402.312 413.594 403.132 L 413.594 403.132 L 413.594 403.132 Q 414.049 403.952 414.049 404.86 L 414.049 404.86 L 414.049 404.86 Q 413.931 405.417 413.668 406.443 L 413.668 406.443 L 413.668 406.443 Q 413.404 407.468 413.023 408.523 L 413.023 408.523 L 402.593 435.827 L 402.593 435.827 Q 401.246 439.431 399.957 441.482 L 399.957 441.482 L 399.957 441.482 Q 398.668 443.532 396.544 444.631 L 396.544 444.631 L 396.544 444.631 Q 394.42 445.73 390.816 445.73 L 390.816 445.73 L 390.816 445.73 Q 387.301 445.73 385.543 444.968 L 385.543 444.968 L 385.543 444.968 Q 383.785 444.206 383.785 442.185 L 383.785 442.185 L 383.785 442.185 Q 383.785 440.808 384.62 440.061 L 384.62 440.061 L 384.62 440.061 Q 385.455 439.314 387.095 439.314 L 387.095 439.314 L 387.095 439.314 Q 387.74 439.314 388.355 439.489 L 388.355 439.489 L 388.355 439.489 Q 389.117 439.665 389.674 439.665 L 389.674 439.665 L 389.674 439.665 Q 391.051 439.665 391.842 439.255 L 391.842 439.255 L 391.842 439.255 Q 392.633 438.845 393.262 437.834 L 393.262 437.834 L 393.262 437.834 Q 393.892 436.823 394.713 434.86 L 394.713 434.86 Z  M 375.552 419.568 L 375.552 419.568 L 359.908 419.568 L 359.908 419.568 Q 359.937 422.292 361.007 424.372 L 361.007 424.372 L 361.007 424.372 Q 362.076 426.452 363.848 427.507 L 363.848 427.507 L 363.848 427.507 Q 365.621 428.562 367.759 428.562 L 367.759 428.562 L 367.759 428.562 Q 369.195 428.562 370.382 428.225 L 370.382 428.225 L 370.382 428.225 Q 371.568 427.888 372.681 427.17 L 372.681 427.17 L 372.681 427.17 Q 373.795 426.452 374.732 425.632 L 374.732 425.632 L 374.732 425.632 Q 375.67 424.812 377.164 423.405 L 377.164 423.405 L 377.164 423.405 Q 377.779 422.878 378.922 422.878 L 378.922 422.878 L 378.922 422.878 Q 380.152 422.878 380.914 423.552 L 380.914 423.552 L 380.914 423.552 Q 381.676 424.226 381.676 425.456 L 381.676 425.456 L 381.676 425.456 Q 381.676 426.54 380.826 427.99 L 380.826 427.99 L 380.826 427.99 Q 379.976 429.441 378.262 430.774 L 378.262 430.774 L 378.262 430.774 Q 376.549 432.107 373.956 432.985 L 373.956 432.985 L 373.956 432.985 Q 371.363 433.864 367.994 433.864 L 367.994 433.864 L 367.994 433.864 Q 360.289 433.864 356.011 429.47 L 356.011 429.47 L 356.011 429.47 Q 351.734 425.075 351.734 417.546 L 351.734 417.546 L 351.734 417.546 Q 351.734 414.001 352.789 410.969 L 352.789 410.969 L 352.789 410.969 Q 353.843 407.937 355.865 405.769 L 355.865 405.769 L 355.865 405.769 Q 357.886 403.601 360.845 402.443 L 360.845 402.443 L 360.845 402.443 Q 363.804 401.286 367.408 401.286 L 367.408 401.286 L 367.408 401.286 Q 372.095 401.286 375.45 403.264 L 375.45 403.264 L 375.45 403.264 Q 378.804 405.241 380.474 408.376 L 380.474 408.376 L 380.474 408.376 Q 382.144 411.511 382.144 414.763 L 382.144 414.763 L 382.144 414.763 Q 382.144 417.78 380.416 418.674 L 380.416 418.674 L 380.416 418.674 Q 378.687 419.568 375.552 419.568 L 375.552 419.568 Z " fill-rule="evenodd" fill="rgb(255,255,255)"/></g></svg>